<?xml version="1.0" encoding="UTF-8"?>
<svg width="113px" height="36px" viewBox="0 0 113 36" version="1.1" xmlns="http://www.w3.org/2000/svg" xmlns:xlink="http://www.w3.org/1999/xlink">
    <title>Artboard</title>
    <desc>Created with Sketch.</desc>
    <defs></defs>
    <g id="Artboard" stroke="none" stroke-width="1" fill="none" fill-rule="evenodd">
        <path d="M104.206048,7.22173282 C98.9074704,7.22173282 95.6330811,9.7078358 95.6330811,14.0643928 L100.691509,14.0642414 C100.691509,12.1079038 101.516432,11.2068374 104.311727,11.2068374 C106.89401,11.2068374 107.947313,11.9296869 107.947313,13.7022867 L107.947313,15.0673002 C106.143323,15.3505577 101.183927,16.2732236 100.713902,16.3738131 C97.8762715,16.9822958 94.4937116,18.5999438 94.4937116,22.8522172 C94.4937116,26.6918576 97.3547722,29.3734772 101.451215,29.3734772 C103.738498,29.3978011 105.96438,28.6242416 107.75501,27.1827235 L107.946864,27.1827235 L108.218308,28.8879507 L112.999621,28.8879507 L113,14.0254934 C112.99998,9.03387805 110.013209,7.22173282 104.206048,7.22173282 Z M107.946914,23.4954409 C106.39877,24.4427857 104.652221,25.0078477 102.848503,25.1449332 C101.073993,25.1449332 99.7860703,24.112947 99.7860703,22.6908258 C99.7860703,20.7606701 101.333955,20.3215423 103.065682,19.9511598 C104.417705,19.6619271 107.947293,18.9785826 107.947293,18.9785826 L107.946914,23.4954409 Z M34.5910753,7.22173282 C29.2925675,7.22173282 26.0180986,9.7078358 26.0180986,14.0643928 L31.076526,14.0642414 C31.076526,12.1079038 31.9014592,11.2068374 34.6967444,11.2068374 C37.279027,11.2068374 38.3323304,11.9296869 38.3323304,13.7022867 L38.3323304,15.0673002 C36.52841,15.3505577 31.5689347,16.2732236 31.0989096,16.3738131 C28.2613587,16.9822958 24.8787988,18.5999438 24.8787988,22.8522172 C24.8787988,26.6918576 27.7397797,29.3734772 31.8363017,29.3734772 C34.1235617,29.3977873 36.3494178,28.6242285 38.140027,27.1827235 L38.3318719,27.1827235 L38.603325,28.8879507 L43.3846288,28.8879507 L43.3850075,14.0254934 C43.3849975,9.03387805 40.3982261,7.22173282 34.5910753,7.22173282 Z M38.3319417,23.4954409 C36.7838026,24.4428124 35.0372475,25.0078893 33.2335208,25.1449735 C31.45901,25.1449735 30.1710778,24.1129874 30.1710778,22.6908662 C30.1710778,20.7607105 31.7189624,20.3215827 33.4506892,19.9512002 C34.8027226,19.6619675 38.3323104,18.978623 38.3323104,18.978623 L38.3319417,23.4954409 Z M96.1082785,0 L90.2448498,28.8876883 L83.8704857,28.8876883 L79.8109175,9.33029713 L79.6191324,9.33029713 L75.5582985,28.8876883 L69.1847616,28.8876883 L63.3213329,0 L68.8964261,0 L72.7175784,21.57987 L72.9092041,21.57987 L77.1227366,0.0707336179 L82.6264037,0.0707336179 L86.6766637,21.57987 L86.8680602,21.57987 L90.5325075,0 L96.1082785,0 Z M17.443318,13.1568668 L17.443318,12.9619456 C20.1828082,12.5124423 22.1404127,10.0339101 21.9717751,7.22844485 C21.9717751,3.30000387 19.2423949,0.000393637429 13.4599596,0.000393637429 L0,0.000393637429 L0,28.888092 L12.1833985,28.888092 C17.335257,28.888092 23.2489242,27.9015761 23.2489242,20.2089822 C23.3688845,16.7041018 20.8691479,13.6676521 17.443318,13.1568668 Z M5.53034607,4.45862013 L11.7842515,4.45862013 C14.674632,4.45862013 16.202485,5.66714759 16.202485,7.95374704 C16.202485,9.28935884 15.6285248,11.5300238 11.7842515,11.5300238 L5.53034607,11.5300238 L5.53034607,4.45862013 Z M12.3828575,23.9464889 L5.53034607,23.9464889 L5.53034607,15.7463248 L12.3428541,15.7463248 C15.8447066,15.7463248 17.4792154,17.1130238 17.4792154,20.0477524 C17.4792254,22.744088 15.9075321,23.9464889 12.3828575,23.9464889 Z M57.8882646,8.05017812 L63.0989323,8.05017812 C63.0989323,8.05017812 57.691646,26.2469968 56.3610196,30.7059803 C55.2535212,34.4171536 53.5323882,36 49.9701419,36 C48.7786409,35.9612112 47.598444,35.7529331 46.4642132,35.3812827 L46.464283,31.526028 C50.1674382,32.4301627 51.30614,31.9177275 51.6038235,29.4003859 L44.2168072,8.05017812 L49.6284685,8.05017812 L53.9604565,22.5557275 L54.1529193,22.5557275 L57.8882646,8.05017812 Z" id="Shape" fill="#0f8345" fill-rule="nonzero"></path>
    </g>
</svg>
