<svg xmlns="http://www.w3.org/2000/svg" width="256px" viewBox="0 0 196 32" class="ms-headerLogo__svg" data-v-d9ea6298=""><g fill="none" fill-rule="evenodd"><path fill="#000" d="M123.897 28.295c-2.37 0-4.386-.372-6.127-1.901a.316.316 0 0 1-.008-.462l1.547-1.509a.324.324 0 0 1 .443-.003c1.2 1.053 2.738 1.337 4.145 1.337 1.857 0 3.323-.642 3.323-2.042 0-.992-.569-1.635-2.036-1.751l-2.423-.204c-2.845-.234-4.49-1.489-4.49-4.085 0-2.889 2.544-4.522 5.716-4.522 2.106 0 3.93.4 5.304 1.408a.36.36 0 0 1 .032.544l-1.4 1.385a.371.371 0 0 1-.477.031c-.935-.644-2.174-.888-3.488-.888-1.826 0-2.755.788-2.755 1.896 0 .875.48 1.546 2.096 1.692l2.394.205c2.844.233 4.521 1.546 4.521 4.17 0 3.094-2.694 4.699-6.317 4.699m12.531-.175c-2.845 0-4.161-1.984-4.161-4.114V9.823c0-.239.197-.431.442-.431h2.169c.244 0 .442.192.442.43v3.484h2.492c.244 0 .442.192.442.43v1.699a.437.437 0 0 1-.442.431h-2.492v7.994c0 1.08.539 1.721 1.676 1.721h.816c.244 0 .442.193.442.432v1.675a.437.437 0 0 1-.442.432h-1.384m37.799 0c-2.845 0-4.16-1.984-4.16-4.114V9.823c0-.239.197-.431.441-.431h2.169c.244 0 .442.192.442.43v3.484h2.492c.244 0 .442.192.442.43v1.699a.437.437 0 0 1-.442.431h-2.492v7.994c0 1.08.539 1.721 1.676 1.721h.816c.244 0 .442.193.442.432v1.675a.438.438 0 0 1-.442.432h-1.384m-24.891-6.535h-3.563c-1.795 0-2.723.788-2.723 2.13 0 1.34.869 2.1 2.784 2.1 1.168 0 2.036-.088 2.843-.846.45-.438.659-1.138.659-2.188v-1.196zm.06 6.05v-.857c-1.108 1.08-2.155 1.517-4.041 1.517-1.886 0-3.143-.438-4.071-1.342-.778-.788-1.197-1.926-1.197-3.18 0-2.48 1.765-4.26 5.238-4.26h4.01v-1.05c0-1.868-.957-2.772-3.321-2.772-1.467 0-2.27.29-3.009 1.067a.501.501 0 0 1-.695.013l-1.268-1.161a.478.478 0 0 1-.017-.69c1.338-1.346 2.792-1.767 5.108-1.767 4.161 0 6.256 1.721 6.256 5.076v9.407a.49.49 0 0 1-.496.484h-2.001a.49.49 0 0 1-.496-.484zm11.372-11.827c-2.753 0-3.173 2.275-3.173 4.901s.42 4.931 3.173 4.931c2.755 0 3.144-2.305 3.144-4.93 0-2.627-.389-4.902-3.144-4.902zm3.203 11.864v-1.128c-1.137 1.343-2.363 1.75-4.01 1.75-1.528 0-2.874-.495-3.712-1.312-1.527-1.488-1.706-4.026-1.706-6.273s.179-4.755 1.706-6.244c.838-.816 2.155-1.312 3.681-1.312 1.617 0 2.874.379 3.982 1.663V9.84c0-.247.205-.447.46-.447h2.133c.255 0 .46.2.46.447v17.833a.454.454 0 0 1-.46.448h-2.074c-.254 0-.46-.2-.46-.448zm-97.59.431a.349.349 0 0 1-.353-.344v-8.837c0-2.856-1.482-4.422-4.19-4.422-2.616 0-4.285 1.627-4.285 4.146v9.113a.35.35 0 0 1-.353.344h-.901a.349.349 0 0 1-.354-.344v-8.837c0-2.856-1.481-4.422-4.19-4.422-2.71 0-4.284 1.627-4.284 4.422v8.837a.35.35 0 0 1-.354.344h-.9a.349.349 0 0 1-.354-.344V13.646a.35.35 0 0 1 .354-.344h.9a.35.35 0 0 1 .354.344v1.407c1.102-1.26 2.677-1.935 4.505-1.935 2.236 0 3.97.951 4.883 2.702 1.134-1.75 2.93-2.702 5.166-2.702 1.67 0 3.057.523 4.003 1.413 1.007.952 1.575 2.364 1.575 4.115v9.113a.35.35 0 0 1-.354.344h-.868m13.546-11.116c-.66-1.536-2.204-2.487-3.937-2.487-1.733 0-3.276.951-3.94 2.487-.376.921-.472 1.382-.535 2.794h8.949c-.063-1.412-.158-1.873-.537-2.794zm-8.412 4.052c0 3.747 1.734 5.835 4.947 5.835 1.691 0 2.767-.461 3.965-1.566.13-.12.33-.134.47-.026l.63.484c.17.132.184.387.025.532-1.434 1.318-2.827 1.99-5.184 1.99-4.19 0-6.46-2.641-6.46-7.586 0-4.759 2.27-7.584 6.082-7.584 3.78 0 6.08 2.702 6.08 7.216 0 0 .038.705-.542.705H71.515zm42.41-4.052c-.662-1.536-2.204-2.487-3.938-2.487-1.733 0-3.276.951-3.939 2.487-.377.921-.472 1.382-.535 2.794h8.949c-.064-1.412-.16-1.873-.537-2.794zm-8.412 4.052c0 3.747 1.733 5.835 4.947 5.835 1.69 0 2.767-.461 3.965-1.566.13-.12.33-.134.47-.026l.63.484c.17.132.183.387.024.532-1.433 1.318-2.826 1.99-5.183 1.99-4.192 0-6.46-2.641-6.46-7.586 0-4.759 2.268-7.584 6.081-7.584 3.781 0 6.08 2.702 6.08 7.216 0 0 .038.705-.542.705h-10.012zm-20.709 6.729v-14.13a.34.34 0 0 1 .344-.336h.919c.19 0 .344.15.344.335v14.13a.34.34 0 0 1-.344.336h-.92a.34.34 0 0 1-.343-.335zm-.009-17.138v-.91a.34.34 0 0 1 .345-.336h.934c.19 0 .345.151.345.336v.91a.34.34 0 0 1-.345.335h-.934a.34.34 0 0 1-.345-.335zm15.5 17.473a.348.348 0 0 1-.353-.343v-8.838c0-2.856-1.481-4.422-4.19-4.422-2.71 0-4.285 1.627-4.285 4.422v8.838c0 .19-.157.343-.352.343h-.903a.348.348 0 0 1-.352-.343V13.645c0-.19.158-.343.352-.343h.903c.195 0 .352.153.352.343v1.408c1.134-1.29 2.646-1.935 4.473-1.935 1.703 0 3.056.491 4.033 1.413 1.009.952 1.577 2.364 1.577 4.115v9.114c0 .19-.158.343-.353.343h-.902m77.553-.343v-.874c0-.195.163-.353.363-.353h.897c.2 0 .363.158.363.353v.874a.358.358 0 0 1-.363.353h-.897a.359.359 0 0 1-.363-.353m6.138-7.025c-1.836 0-2.084 1.576-2.084 3.118 0 1.542.248 3.118 2.084 3.118 1.821 0 2.067-1.576 2.067-3.118 0-2.748-1.045-3.118-2.067-3.118zm-.28 7.473c-.86 0-1.66-.282-2.144-.752-.958-.933-1.068-2.504-1.068-3.603 0-1.1.11-2.67 1.068-3.603.483-.47 1.285-.752 2.145-.752.782 0 1.602.118 2.346.938v-4.422c0-.083.069-.15.155-.15h1.098c.086 0 .155.067.155.15v11.95a.144.144 0 0 1-.144.142h-1.103a.144.144 0 0 1-.145-.141v-.726c-.755.85-1.613.97-2.362.97zm6.512-5.024h4.369c-.034-.619-.074-.864-.252-1.29-.322-.746-1.063-1.21-1.932-1.21-.868 0-1.61.464-1.933 1.211-.177.422-.217.668-.252 1.289zm2.411 5.024c-2.466 0-3.823-1.547-3.823-4.355 0-2.727 1.345-4.355 3.597-4.355 2.218 0 3.597 1.578 3.597 4.117v.554a.083.083 0 0 1-.085.082h-5.7c.023 1.766.892 2.737 2.45 2.737.915 0 1.488-.243 2.193-.93 0 0 .047-.058.097-.009.051.05.775.654.85.728.076.073.015.118.015.118-.83.81-1.655 1.313-3.19 1.313z"></path><path fill="#FFE857" d="M32.231 23.922a.343.343 0 0 1-.346.337H4.292a.343.343 0 0 1-.346-.337V4.183c0-.185.155-.337.346-.337h27.593c.19 0 .346.152.346.337v19.739"></path><path fill="#000" d="M34.633 24.431c0 1.166-.97 2.11-2.165 2.11h-28.7c-1.196 0-2.165-.944-2.165-2.11V3.673c0-1.166.97-2.11 2.165-2.11h28.7c1.196 0 2.165.944 2.165 2.11V24.43zM32.513 0H3.723C1.667 0 0 1.625 0 3.63v20.845c0 2.004 1.667 3.629 3.723 3.629l13.243-.001c.19 0 .344.15.344.336l.001 3.226a.34.34 0 0 0 .344.335h.92a.34.34 0 0 0 .345-.335v-3.226a.34.34 0 0 1 .344-.336h13.249c2.056 0 3.723-1.624 3.723-3.628V3.629C36.236 1.625 34.57 0 32.513 0z"></path></g></svg>
