<svg xmlns="http://www.w3.org/2000/svg" width="300" height="128.65" viewBox="0 0 300 128.65"><path fill="#a1d0ec" d="M248.15 19.66c15.12 10.46 29.94 29.67 34.87 53.39-8.2-7.1-19.94-10.71-29.38-11.4 1.81-11.18 2.42-31.28-5.5-42"/><path fill="#078bcd" d="M261.59 54.98c1.55-11.54.83-30.45-7.9-45.15 20.08 12.93 33.96 35.05 37.82 57.5-8.94-7.49-21.11-11.58-29.92-12.35"/><g fill="#162b5c"><path d="M259.25 0c25 15.4 37.96 40.43 40.75 61.62-9.68-7.89-22.28-12.46-30.46-13.31 1.3-11.9-.76-29.6-10.3-48.3M5.95 108.08H4.43L0 96.57h1.68l2.85 7.73c.33.9.6 1.78.67 2h.04c.05-.19.33-1.09.66-2l2.78-7.73h1.56l-4.3 11.51m10.46-5.2c-.04-1.13-.54-2.13-1.9-2.13-1.25 0-1.96.89-2.17 2.13zm-1.6 4.2c1.15 0 1.91-.49 2.27-.7l.57 1.07c-.44.29-1.36.84-2.9.84-2.67 0-4.03-1.92-4.03-4.43 0-2.46 1.6-4.3 3.82-4.3 2.3 0 3.54 1.75 3.3 4.45h-5.57c.06 1.69.75 3.07 2.53 3.07m9.77-5.98a1.6 1.6 0 00-.76-.14c-1.2 0-1.87 1.33-2 1.6v5.52h-1.46v-8.31h1.45v1.26c.35-.57 1.06-1.47 2.2-1.47.53 0 .81.12.93.17l-.36 1.37m3.3 5.72c.15.07.62.25 1.41.25 1.77 0 2.67-1.48 2.67-3.15 0-1.72-.64-3.1-2.34-3.1-.9 0-1.62.63-1.74.78zm0-11.18v4.78a2.97 2.97 0 012.06-.86c2.24 0 3.58 1.68 3.58 4.32 0 2.6-1.8 4.41-4.24 4.41a5.92 5.92 0 01-2.87-.64V95.64h1.47m12.23 8.54h-.35c-1.7 0-2.92.46-2.92 1.8 0 .8.67 1.1 1.17 1.1 1.16 0 1.82-.76 2.1-1.1zm.2 3.9a5.79 5.79 0 01-.13-.98 3.16 3.16 0 01-2.46 1.2c-1.4 0-2.4-.89-2.4-2.27 0-2.2 2.38-2.87 4.44-2.87h.35v-.73c0-.98-.35-1.63-1.61-1.63-1.16 0-1.85.65-2.16.89l-.73-.99a4.3 4.3 0 013-1.14c1.93 0 2.95.86 2.95 2.82v3.7c0 .9.1 1.57.2 2H40.3m9.38 0v-5.62c0-1-.34-1.62-1.4-1.62-1.2 0-2.1 1.2-2.28 1.44v5.8h-1.45v-8.31H46v1.16a3.45 3.45 0 012.7-1.37c1.76 0 2.45 1.16 2.45 2.61v5.91h-1.47m7.54-1.07c1.04 0 1.77-.77 2-1.08v-4.43a2.65 2.65 0 00-1.9-.71c-1.5 0-2.31 1.3-2.31 3.13 0 1.83.64 3.1 2.21 3.1zm-.1-7.45c1.16 0 1.78.43 2.1.7v-4.6h1.44v10.6c0 .8.16 1.53.23 1.82h-1.47a5.6 5.6 0 01-.16-.95 2.95 2.95 0 01-2.38 1.16c-2.03 0-3.44-1.57-3.44-4.35 0-2.63 1.59-4.38 3.68-4.38m13.83 7.45c1.04 0 1.76-.77 2-1.08v-4.43a2.67 2.67 0 00-1.9-.71c-1.5 0-2.31 1.3-2.31 3.13 0 1.83.64 3.1 2.21 3.1zm-.1-7.45c1.16 0 1.78.43 2.1.7v-4.6h1.44v10.6c0 .8.15 1.53.22 1.82h-1.46a4.78 4.78 0 01-.16-.95 2.96 2.96 0 01-2.38 1.16c-2.03 0-3.45-1.57-3.45-4.35 0-2.63 1.6-4.38 3.69-4.38m11.7 3.32c-.04-1.13-.53-2.13-1.9-2.13-1.25 0-1.95.89-2.16 2.13zm-1.6 4.2c1.15 0 1.91-.49 2.28-.7l.57 1.07c-.45.29-1.37.84-2.9.84-2.67 0-4.04-1.92-4.04-4.43 0-2.46 1.6-4.3 3.82-4.3 2.3 0 3.54 1.75 3.3 4.45h-5.56c.05 1.69.74 3.07 2.52 3.07m9.77-5.98a1.6 1.6 0 00-.76-.14c-1.2 0-1.87 1.33-2 1.6v5.52h-1.46v-8.31h1.46v1.26c.34-.57 1.05-1.47 2.2-1.47.53 0 .8.12.93.17l-.37 1.37m11.6 6.98l-2.62-7.24c-.28-.78-.52-1.56-.54-1.6h-.04c0 .03-.07.87-.17 1.65l-.88 7.2h-1.45l1.59-11.52h1.47l2.75 7.7.7 2.08h.04c.05-.15.33-1.1.7-2.08l2.76-7.7h1.49l1.55 11.51h-1.57l-.95-7.22c-.1-.78-.2-1.53-.2-1.63h-.03c-.02.1-.22.85-.5 1.61l-2.58 7.24h-1.52m14.99-5.2c-.04-1.13-.54-2.13-1.91-2.13-1.24 0-1.96.89-2.16 2.13zm-1.61 4.2c1.15 0 1.91-.49 2.28-.7l.57 1.07c-.45.29-1.37.84-2.9.84-2.67 0-4.04-1.92-4.04-4.43 0-2.46 1.6-4.3 3.83-4.3 2.3 0 3.54 1.75 3.3 4.45h-5.57c.05 1.69.74 3.07 2.53 3.07m4.59-6.17v-1.14h1.37v-2.39h1.45v2.39h2.08v1.14h-2.08v4.9c0 .84.24 1.24.95 1.24.52 0 .97-.25 1.13-.35l.46 1.1c-.26.16-.88.5-1.81.5-1.5 0-2.18-.85-2.18-2.3v-5.09h-1.37m11.32 3.27h-.34c-1.7 0-2.92.46-2.92 1.8 0 .8.67 1.1 1.18 1.1a2.7 2.7 0 002.09-1.1zm.21 3.9a5.81 5.81 0 01-.13-.98 3.16 3.16 0 01-2.46 1.2c-1.4 0-2.4-.89-2.4-2.27 0-2.2 2.38-2.87 4.44-2.87h.35v-.73c0-.98-.35-1.63-1.6-1.63-1.17 0-1.86.65-2.17.89l-.73-.99a4.28 4.28 0 013.01-1.14c1.92 0 2.94.86 2.94 2.82v3.7c0 .9.1 1.57.2 2h-1.45m4.29 0h1.47V95.64h-1.47zm4.65 0h1.47V95.64h-1.47zm4.15-4.32h3.58v-1.24h-3.57zm11.71-3.99v5.62c0 1 .35 1.6 1.42 1.6 1.17 0 2.07-1.19 2.25-1.43v-5.8h1.47v6.44c0 .78.08 1.52.17 1.88h-1.47a9 9 0 01-.14-1.2 3.36 3.36 0 01-2.7 1.41c-1.78 0-2.47-1.16-2.47-2.62v-5.9h1.47m13.46 8.31v-5.62c0-1-.35-1.62-1.4-1.62-1.22 0-2.12 1.2-2.29 1.44v5.8h-1.45v-8.31h1.45v1.16a3.44 3.44 0 012.7-1.37c1.76 0 2.46 1.16 2.46 2.61v5.91h-1.47m7.53-1.07c1.04 0 1.77-.77 2-1.08v-4.43a2.67 2.67 0 00-1.9-.71c-1.5 0-2.31 1.3-2.31 3.13 0 1.83.64 3.1 2.21 3.1zm-.1-7.45c1.16 0 1.78.43 2.1.7v-4.6h1.44v10.6c0 .8.16 1.53.23 1.82h-1.47a4.7 4.7 0 01-.16-.95 2.96 2.96 0 01-2.38 1.16c-2.03 0-3.45-1.57-3.45-4.35 0-2.63 1.6-4.38 3.69-4.38M1.3 128.42v-11.5h6.06v1.3H2.85v3.48H6.8v1.3H2.85v4.11h4.63v1.31H1.3m8.7 0h1.47v-12.45H10zm9.58-5.2c-.03-1.12-.53-2.12-1.9-2.12-1.25 0-1.95.88-2.16 2.12zm-1.6 4.2c1.15 0 1.91-.48 2.28-.7l.57 1.07a5 5 0 01-2.9.85c-2.67 0-4.04-1.93-4.04-4.43 0-2.48 1.6-4.3 3.82-4.3 2.3 0 3.54 1.74 3.3 4.44h-5.56c.05 1.7.74 3.07 2.52 3.07m10.33-7.32H30l-3.38 3.7 3.52 4.62h-1.76l-3.44-4.63zm-4.83 8.32v-12.45h1.47v12.45h-1.47m7.48-7.17v-1.14h1.37v-2.39h1.45v2.39h2.08v1.14h-2.08v4.91c0 .83.24 1.23.96 1.23.51 0 .96-.24 1.12-.35l.47 1.1c-.26.16-.89.5-1.82.5-1.5 0-2.18-.85-2.18-2.29v-5.1h-1.37m11.53.19a1.6 1.6 0 00-.76-.14c-1.2 0-1.87 1.33-2 1.6v5.52h-1.46v-8.31h1.45v1.26c.35-.57 1.06-1.47 2.2-1.47.54 0 .81.12.93.18l-.36 1.36m4.94-.33c-1.66 0-2.3 1.39-2.3 3.13 0 1.75.73 3.18 2.4 3.18 1.63 0 2.38-1.4 2.38-3.14 0-1.73-.83-3.17-2.48-3.17zm.05 7.53c-2.81 0-3.9-2.38-3.9-4.36 0-1.98 1.04-4.38 3.87-4.38 2.82 0 4.01 2.35 4.01 4.34 0 1.97-1.14 4.4-3.98 4.4m6.46-8.54h1.48v8.32h-1.48zm.74-1.46c-.57 0-1.02-.47-1.02-1.02a1 1 0 011.02-1.02 1.02 1.02 0 010 2.04m9.06 9.78v-5.61c0-1-.35-1.63-1.4-1.63-1.21 0-2.11 1.2-2.28 1.44v5.8h-1.46v-8.31h1.46v1.16a3.44 3.44 0 012.7-1.37c1.75 0 2.45 1.16 2.45 2.61v5.91h-1.47m7.54-1.06c1.03 0 1.76-.78 1.98-1.1v-4.42a2.6 2.6 0 00-1.88-.71c-1.5 0-2.32 1.3-2.32 3.13 0 1.83.65 3.1 2.22 3.1zm-.1-7.46c1.15 0 1.78.43 2.08.7V116h1.46v10.6c0 .8.15 1.53.22 1.82h-1.47a5.64 5.64 0 01-.15-.94 2.95 2.95 0 01-2.39 1.16c-2.02 0-3.44-1.58-3.44-4.36 0-2.63 1.6-4.38 3.68-4.38m8.03.2v5.63c0 1 .34 1.6 1.41 1.6 1.18 0 2.08-1.19 2.25-1.43v-5.8h1.47v6.44c0 .78.08 1.52.17 1.88h-1.47c-.05-.2-.12-.8-.14-1.2a3.36 3.36 0 01-2.7 1.42c-1.77 0-2.46-1.16-2.46-2.63v-5.9h1.47m10.2 8.54a4.73 4.73 0 01-2.7-.8l.6-1.09a3.6 3.6 0 002.06.68c1 0 1.63-.4 1.63-1.1 0-.73-.68-1.03-1.89-1.56-1.28-.55-2.21-1.16-2.21-2.54 0-1.34 1.04-2.34 2.73-2.34 1.39 0 2.23.55 2.51.76l-.66 1.06c-.3-.23-.93-.6-1.83-.6-.88 0-1.35.39-1.35 1.05 0 .74.7 1.02 1.63 1.41 1.33.56 2.5 1.16 2.5 2.56 0 1.56-1.16 2.51-3.02 2.51m4.49-7.4v-1.14h1.36v-2.39h1.46v2.39h2.07v1.14H96.7v4.91c0 .83.24 1.23.95 1.23.52 0 .97-.24 1.12-.35l.47 1.1c-.26.16-.88.5-1.81.5-1.51 0-2.19-.85-2.19-2.29v-5.1h-1.36m11.53.19a1.6 1.6 0 00-.76-.14c-1.2 0-1.87 1.33-2 1.6v5.52h-1.46v-8.31h1.45v1.26c.35-.57 1.06-1.47 2.2-1.47a2 2 0 01.93.18l-.36 1.36m11.47 1.78c-.03-1.12-.53-2.12-1.9-2.12-1.24 0-1.95.88-2.16 2.12zm-1.6 4.2c1.16 0 1.92-.48 2.28-.7l.57 1.07c-.45.3-1.37.85-2.9.85-2.67 0-4.03-1.93-4.03-4.43 0-2.48 1.59-4.3 3.82-4.3 2.3 0 3.54 1.74 3.3 4.44h-5.57c.06 1.7.74 3.07 2.53 3.07m14.66-4.2c-.04-1.12-.54-2.12-1.9-2.12-1.25 0-1.96.88-2.17 2.12zm-1.61 4.2c1.16 0 1.92-.48 2.28-.7l.57 1.07c-.45.3-1.36.85-2.9.85-2.67 0-4.03-1.93-4.03-4.43 0-2.48 1.6-4.3 3.82-4.3 2.3 0 3.55 1.74 3.3 4.44h-5.57c.06 1.7.75 3.07 2.53 3.07"/><path d="M107.24 120.1h1.48v8.32h-1.48zm.74-1.46c-.57 0-1.02-.47-1.02-1.02 0-.57.45-1.02 1.02-1.02a1.02 1.02 0 010 2.04"/><path d="M134.48 128.58c-.64 0-1.14-.5-1.14-1.14 0-.62.5-1.12 1.14-1.12.64 0 1.16.5 1.16 1.12 0 .64-.52 1.14-1.16 1.14m6.89-.16h-1.53l-4.42-11.5h1.68l2.85 7.72c.33.9.6 1.78.67 2h.04c.05-.19.33-1.08.65-2l2.8-7.73h1.54l-4.28 11.51m4.51.16c-.64 0-1.14-.5-1.14-1.14 0-.62.5-1.12 1.14-1.12s1.16.5 1.16 1.12c0 .64-.52 1.14-1.16 1.14"/><path d="M21.71 82.35V58.1h-6.45v6.62c0 1.98.04 5.2.21 6.28a69.9 69.9 0 00-3.77-5.73L6.36 58.1H.43v24.26h6.44v-7.41c0-1.98-.03-5.2-.2-6.28.62 1.08 2.7 4.2 3.77 5.69l5.8 8h5.47m21.94-12.1c0 4.37-1.52 6.62-4.23 6.62-2.7 0-4.3-2.32-4.3-6.7 0-4.36 1.53-6.61 4.23-6.61s4.3 2.32 4.3 6.7zm6.97-.07c0-8.08-4.61-12.48-11.2-12.48-6.59 0-11.26 4.47-11.26 12.55 0 8.08 4.6 12.47 11.2 12.47 6.58 0 11.26-4.47 11.26-12.54m20.06-4.02c0 1.73-.86 2.7-3.04 2.7h-3.95v-5.3h4.05c2.12 0 2.94 1.07 2.94 2.6zm7.18 16.18L73 73.1c2.67-1.21 4.37-3.47 4.37-7.1 0-5.76-3.78-7.9-9.47-7.9H57.07v24.25h6.62v-8.17h2.7l3.95 8.17h7.52m20.41-12.16c0 4.81-1.63 6.41-5.82 6.41h-1.46V63.84h1.67c4.19 0 5.61 1.88 5.61 6.35zm6.9-.1c0-9.12-4.85-12-12.48-12h-8.5v24.26h7.87c8.6 0 13.11-3.15 13.11-12.26m30.78 12.26V58.1h-6.1l-2.99 6.49a68.83 68.83 0 00-3.04 7.3 65.91 65.91 0 00-3.05-7.3l-2.98-6.49h-6.18v24.26h6.31v-5.78c0-2.4-.03-4.58-.13-6.45.72 1.8 1.97 4.61 2.8 6.34l3.2 6.73 3.18-6.73c.83-1.73 2.08-4.54 2.8-6.34-.1 1.87-.13 4.06-.13 6.45v5.78h6.3m25.53-.01v-5.64h-11.25v-4.16h7.18v-5.58h-7.18v-3.23h10.82V58.1h-17.47v24.26h17.9m35.91-9.6h-4.02l.45-1.6c.86-3.09 1.25-4.44 1.56-6.07.31 1.63.7 2.95 1.56 6.07zm10.22 9.6l-8.8-24.27H192l-8.8 24.26h7.21l1.32-4.26h7.28l1.32 4.26h7.27m19.12 0V76.5h-7.81V58.1h-6.8v24.25h14.6m19.77 0V76.5h-7.8V58.1h-6.8v24.25h14.6m-63.98-18.4V58.1h-17.75v5.86h5.5v18.4h6.73v-18.4h5.51"/></g></svg>
