<svg aria-label="Startseite" xmlns="http://www.w3.org/2000/svg" xmlns:xlink="http://www.w3.org/1999/xlink" x="0px" y="0px" viewBox="0 0 841.4 228.9" width="841.4" height="228.9" xml:space="preserve">
<g>
<g>
<path fill="#001D3E" d="M127.4,90.5H138v22.1h-10.5V90.5z M145.4,83.5H120c-4.1,0-7.4,3.3-7.4,7.4v47c0,4.1,3.3,7.4,7.4,7.4h25.4 c4.1,0,7.4-3.3,7.4-7.4v-10.4H138v10.8h-10.5v-18.9h25.4v-7V90.9C152.8,86.8,149.5,83.5,145.4,83.5"></path>
<path fill="#001D3E" d="M175.1,90.5h10.5v22.1h-10.5V90.5z M193,83.5h-25.4c-4.1,0-7.4,3.3-7.4,7.4v47c0,4.1,3.3,7.4,7.4,7.4H193 c4.1,0,7.4-3.3,7.4-7.4v-10.4h-14.9v10.8h-10.5v-18.9h25.4v-7V90.9C200.4,86.8,197.1,83.5,193,83.5"></path>
<path fill="#001D3E" d="M78.3,68.8h12.4v43.8H78.3V68.8z M98.8,61.9h-37v83.5h16.4v-25.8h20.6c4.5,0,8.2-3.7,8.2-8.2V70.1 C107,65.5,103.4,61.9,98.8,61.9"></path>
<path fill="#001D3E" d="M241,112.6h-3.1l10.5-29.1h-14.9L223,112.6V61.9h-14.9v83.5H223v-25.8h10.5v25.8h14.9V120 C248.4,115.9,245.1,112.6,241,112.6"></path>
<path fill="#001D3E" d="M533,90.5h10.5v22.1H533V90.5z M550.9,83.5h-25.4c-4.1,0-7.4,3.3-7.4,7.4v47c0,4.1,3.3,7.4,7.4,7.4h25.4 c4.1,0,7.4-3.3,7.4-7.4v-10.4h-14.9v10.8H533v-18.9h25.4V90.9C558.4,86.8,555,83.5,550.9,83.5"></path>
<path fill="#001D3E" d="M389.5,90.5H400v47.9h-10.5V90.5z M407.4,83.5h-25.4c-4.1,0-7.4,3.3-7.4,7.4v47c0,4.1,3.3,7.4,7.4,7.4h25.4 c4.1,0,7.4-3.3,7.4-7.4v-47C414.8,86.8,411.5,83.5,407.4,83.5"></path>
<rect x="352.1" y="61.9" fill="#001D3E" width="14.8" height="83.5"></rect>
<path fill="#001D3E" d="M437.4,90.5h10.5v47.9h-10.5V90.5z M455.4,83.5h-32.8V167h14.9v-21.7h17.9c4.1,0,7.4-3.3,7.4-7.4v-47 C462.8,86.8,459.5,83.5,455.4,83.5"></path>
<path fill="#001D3E" d="M485.1,90.5h10.5v47.9h-10.5V90.5z M503,83.5h-32.8V167h14.9v-21.7H503c4.1,0,7.4-3.3,7.4-7.4v-47 C510.4,86.8,507.1,83.5,503,83.5"></path>
<path fill="#001D3E" d="M629.2,90.5h10.5v47.9h-10.5V90.5z M647.1,83.5h-17.9V61.9h-14.9v83.5h32.8c4.1,0,7.4-3.3,7.4-7.4v-47 C654.6,86.8,651.2,83.5,647.1,83.5"></path>
<path fill="#001D3E" d="M598.9,83.5h-32.8v61.9H581V90.5h10.5v54.9h14.9V90.9C606.3,86.8,603,83.5,598.9,83.5"></path>
<path fill="#001D3E" d="M702.5,83.5h-14.8v54.9h-10.5V83.5h-14.8V138c0,4.1,3.3,7.4,7.4,7.4h32.8V83.5z"></path>
<path fill="#001D3E" d="M735.6,83.5h-17.9c-4.1,0-7.4,3.3-7.4,7.4v54.4h14.9V90.5h10.5V83.5z"></path>
<path fill="#001D3E" d="M764.7,138.4h-10.5V90.5h10.5V138.4z M779.5,83.5h-32.8c-4.1,0-7.4,3.3-7.4,7.4v47c0,4.1,3.3,7.4,7.4,7.4 h17.9v14.7h-10.5v-7.9h-14.8v7.4c0,4.1,3.3,7.4,7.4,7.4h25.4c4.1,0,7.4-3.3,7.4-7.4V83.5z"></path>
<path fill="#001D3E" d="M327.9,90.5h16.4V70.1c0-4.5-3.7-8.2-8.2-8.2h-28.8c-4.5,0-8.2,3.7-8.2,8.2v67.1c0,4.5,3.7,8.2,8.2,8.2h28.8 c4.5,0,8.2-3.7,8.2-8.2v-24.6h-16.4v25.8h-12.4V68.8h12.4V90.5z"></path>
<path fill="#001D3E" d="M299.2,137.2v-18.6l-31.1-40.3c-2.4-3.1-1.8-7.6,1.3-10c3.1-2.4,7.6-1.8,10,1.3l11.8,15.3V65.2 c-7-4.6-16.4-4.6-23.4,0.9c-8.8,6.8-10.4,19.5-3.6,28.3c0,0,0.9,1.1,2.3,3c-2.9,1.9-5.7,4-8.2,6c-10.6,8.2-13.2,22.5-5,33.1 c8.2,10.6,22.6,11.6,33.2,3.4c2.5-2,5.3-4.1,7.8-6.5c5.3,6.9,6.7,8.7,6.7,8.7v0C299.8,140.8,299.2,139,299.2,137.2z M264.9,127.4 c-6.7-8.7-5.3-21.1,3-28.1c5.7,7.4,16.6,21.6,24.8,32.3C283.9,137.9,271.6,136.1,264.9,127.4z"></path>
<polygon fill="#001D3E" points="805.4,61.9 801.8,69.2 798,61.9 794.3,63.9 799.2,70.9 790.6,70.2 790.6,74.1 799.2,73.4 794.3,80.4 798,82.5 801.8,75.2 805.4,82.5 809.1,80.4 804.3,73.4 812.9,74.1 812.9,70.2 804.3,70.9 809.1,63.9"></polygon>
</g>
<path fill="none" d="M7,130.5V120h47.9v10.5H7z M0,112.6V138c0,4.1,3.3,7.4,7.4,7.4h47c4.1,0,7.4-3.3,7.4-7.4v-25.4 c0-4.1-3.3-7.4-7.4-7.4h-47C3.3,105.2,0,108.5,0,112.6"></path>
<path fill="none" d="M786.5,130.5V120h47.9v10.5H786.5z M779.5,112.6V138c0,4.1,3.3,7.4,7.4,7.4h47c4.1,0,7.4-3.3,7.4-7.4v-25.4 c0-4.1-3.3-7.4-7.4-7.4h-47C782.9,105.2,779.5,108.5,779.5,112.6"></path>
<path fill="none" d="M424.6,174h10.5v47.9h-10.5V174z M442.6,167h-25.4c-4.1,0-7.4,3.3-7.4,7.4v47c0,4.1,3.3,7.4,7.4,7.4h25.4 c4.1,0,7.4-3.3,7.4-7.4v-47C450,170.4,446.7,167,442.6,167"></path>
<path fill="none" d="M339.1,7h10.5v47.9h-10.5V7z M357,0h-25.4c-4.1,0-7.4,3.3-7.4,7.4v47c0,4.1,3.3,7.4,7.4,7.4H357 c4.1,0,7.4-3.3,7.4-7.4v-47C364.4,3.3,361.1,0,357,0"></path>
</g>
</svg>