<svg width="127" height="32" viewBox="0 0 127 32" fill="none" xmlns="http://www.w3.org/2000/svg">
<g clip-path="url(#clip0_1332_20878)">
<path fill-rule="evenodd" clip-rule="evenodd" d="M78.5275 12.868C78.9651 12.1705 79.5649 11.5685 80.2579 11.1265C80.7599 10.8066 81.4396 10.5245 82.0261 10.3757V9.27171L84.605 11.8506L82.0261 14.4296V13.3145C81.2775 13.7143 80.6133 14.5073 80.4578 15.347C80.4489 15.3958 80.44 15.4447 80.4334 15.4958C80.4178 15.6135 80.4112 15.7357 80.4112 15.8601C80.4112 16.0422 80.4112 21.8709 80.4112 21.8709C80.4112 22.5639 79.7537 23.1726 79.0029 23.1726C78.1121 23.1726 77.679 22.5017 77.6545 21.8709V15.478C77.6568 14.6539 77.9411 13.8009 78.5275 12.868Z" fill="#FF8300"/>
<path fill-rule="evenodd" clip-rule="evenodd" d="M84.4116 13.1856L85.7444 11.8529L84.2317 10.3401L84.4472 10.3868C84.4783 10.3935 84.5093 10.4001 84.5382 10.4068C85.1313 10.5467 85.6933 10.7822 86.2109 11.1087C86.9172 11.5508 87.5259 12.1594 87.9724 12.8658C88.2856 13.3611 88.8098 14.3607 88.8098 15.4802V21.8731C88.7965 22.4884 88.2722 23.1526 87.4481 23.1526C86.6507 23.1526 86.0243 22.5884 86.0243 21.8709V15.4736C86.0243 14.745 85.3024 13.7721 84.4472 13.3478C84.4161 13.3322 84.385 13.3189 84.3539 13.3034L84.3094 13.2834L84.4116 13.1856Z" fill="#FF8300"/>
<path d="M49.3174 19.1232C49.3174 19.965 49.1131 20.6847 48.7021 21.2845C48.2934 21.8842 47.687 22.3374 46.8873 22.6461C46.0877 22.9549 45.1125 23.1104 43.9663 23.1104C42.8712 23.1104 41.9338 22.9438 41.1519 22.6084C40.37 22.273 39.7925 21.8554 39.4216 21.3511C39.0484 20.8491 38.864 20.3449 38.864 19.8384C38.864 19.503 38.984 19.2165 39.2216 18.9788C39.4593 18.7411 39.7614 18.6211 40.1257 18.6211C40.4456 18.6211 40.6921 18.6989 40.8632 18.8566C41.0342 19.0121 41.1986 19.232 41.3541 19.5163C41.6673 20.0605 42.0405 20.4648 42.4758 20.7336C42.9112 21.0024 43.5043 21.1357 44.2573 21.1357C44.8682 21.1357 45.368 21.0002 45.7589 20.7269C46.1499 20.4559 46.3453 20.145 46.3453 19.794C46.3453 19.2587 46.1432 18.8677 45.7367 18.6211C45.3302 18.3746 44.6616 18.1413 43.7309 17.917C42.6802 17.6571 41.8272 17.3839 41.1675 17.0951C40.5078 16.8086 39.9813 16.4309 39.5882 15.9623C39.1928 15.4936 38.9973 14.916 38.9973 14.2319C38.9973 13.621 39.1794 13.0435 39.5437 12.5015C39.908 11.9573 40.4456 11.5241 41.1586 11.1998C41.8694 10.8755 42.7268 10.7133 43.7331 10.7133C44.5217 10.7133 45.2325 10.7955 45.8611 10.9599C46.4897 11.1243 47.0162 11.3442 47.436 11.6196C47.8558 11.8951 48.1757 12.1994 48.3956 12.5348C48.6155 12.8702 48.7243 13.1967 48.7243 13.5166C48.7243 13.8676 48.6066 14.1541 48.3734 14.3762C48.1379 14.6006 47.8047 14.7117 47.3738 14.7117C47.0606 14.7117 46.794 14.6228 46.5741 14.4429C46.3542 14.2652 46.1032 13.9964 45.8211 13.6388C45.5901 13.3411 45.3191 13.1034 45.0059 12.9235C44.6927 12.7458 44.2684 12.6547 43.7331 12.6547C43.1822 12.6547 42.7246 12.7725 42.3603 13.0057C41.996 13.2412 41.8139 13.5322 41.8139 13.8831C41.8139 14.203 41.9472 14.4651 42.2159 14.6695C42.4847 14.8738 42.8446 15.0426 43.2999 15.1781C43.7531 15.3114 44.3795 15.4758 45.1769 15.669C46.1232 15.9001 46.894 16.1755 47.4937 16.4954C48.0935 16.8152 48.5466 17.1928 48.8554 17.6282C49.1619 18.068 49.3174 18.5656 49.3174 19.1232Z" fill="#FF8300"/>
<path d="M59.7132 17.6615H53.749C53.7557 18.3546 53.8956 18.9654 54.1688 19.4941C54.4398 20.0228 54.8019 20.4204 55.2528 20.6892C55.7037 20.9579 56.2013 21.0912 56.7433 21.0912C57.1076 21.0912 57.4408 21.049 57.7429 20.9624C58.045 20.8758 58.336 20.7425 58.6203 20.5603C58.9024 20.3782 59.1645 20.1827 59.4022 19.9739C59.6399 19.7651 59.9486 19.483 60.3285 19.1254C60.484 18.9921 60.7083 18.9232 60.9993 18.9232C61.3125 18.9232 61.5657 19.0099 61.759 19.1809C61.9522 19.3519 62.05 19.5941 62.05 19.9073C62.05 20.1827 61.9411 20.5048 61.7257 20.8735C61.5102 21.2423 61.1837 21.5955 60.7483 21.9353C60.3129 22.2752 59.7665 22.5551 59.1068 22.7794C58.447 23.0038 57.6896 23.1148 56.8344 23.1148C54.8752 23.1148 53.3536 22.5573 52.2674 21.44C51.1812 20.3227 50.637 18.8077 50.637 16.8952C50.637 15.9933 50.7702 15.1581 51.039 14.3873C51.3078 13.6166 51.6987 12.9568 52.2119 12.406C52.725 11.8551 53.358 11.433 54.1111 11.1376C54.8641 10.8444 55.6971 10.6956 56.6122 10.6956C57.8029 10.6956 58.8247 10.9466 59.6776 11.4486C60.5306 11.9506 61.1681 12.6014 61.5924 13.3967C62.0167 14.1941 62.2299 15.0049 62.2299 15.8312C62.2299 16.5975 62.01 17.0951 61.5702 17.3217C61.1281 17.5483 60.5106 17.6615 59.7132 17.6615ZM53.749 15.9289H59.2778C59.2023 14.8871 58.9224 14.1075 58.4337 13.5899C57.945 13.0723 57.3031 12.8147 56.5078 12.8147C55.7482 12.8147 55.124 13.0768 54.6375 13.601C54.1488 14.1252 53.8534 14.9027 53.749 15.9289Z" fill="#FF8300"/>
<path d="M99.6832 21.3689V21.0668C99.2745 21.5355 98.8702 21.9175 98.4704 22.2108C98.0728 22.504 97.6396 22.7283 97.1754 22.8816C96.7089 23.0349 96.2024 23.1104 95.6515 23.1104C94.9207 23.1104 94.2455 22.9549 93.6235 22.6461C93.0015 22.3374 92.464 21.8953 92.0086 21.3222C91.5555 20.7491 91.209 20.0761 90.9757 19.3009C90.7403 18.5256 90.6248 17.6882 90.6248 16.7886C90.6248 14.8827 91.089 13.3967 92.0219 12.3327C92.9527 11.2687 94.1766 10.7355 95.696 10.7355C96.5734 10.7355 97.3153 10.8866 97.9195 11.1887C98.5237 11.4908 99.1101 11.9528 99.6832 12.5792V8.07887C99.6832 7.45246 99.8076 6.98155 100.056 6.65946C100.305 6.33959 100.661 6.17966 101.123 6.17966C101.585 6.17966 101.94 6.32627 102.189 6.6217C102.438 6.91491 102.562 7.35028 102.562 7.92338V21.3689C102.562 21.9486 102.429 22.3862 102.16 22.675C101.891 22.966 101.545 23.1104 101.12 23.1104C100.703 23.1104 100.358 22.9593 100.087 22.6572C99.8187 22.3574 99.6832 21.9264 99.6832 21.3689ZM93.6835 16.8908C93.6835 17.7171 93.8123 18.4212 94.0678 19.001C94.3254 19.5807 94.6764 20.0183 95.1229 20.3138C95.5694 20.607 96.058 20.7558 96.5867 20.7558C97.122 20.7558 97.6129 20.6159 98.055 20.336C98.497 20.0561 98.8524 19.6296 99.1168 19.0521C99.3811 18.4745 99.5122 17.7548 99.5122 16.8908C99.5122 16.08 99.3789 15.3803 99.1168 14.7961C98.8524 14.2119 98.4948 13.7654 98.0439 13.4566C97.593 13.1479 97.0998 12.9924 96.5645 12.9924C96.007 12.9924 95.5072 13.1501 95.0673 13.4677C94.6275 13.7832 94.2877 14.2385 94.0455 14.8294C93.8056 15.4203 93.6835 16.1089 93.6835 16.8908Z" fill="#FF8300"/>
<path d="M113.713 17.6615H107.749C107.755 18.3546 107.895 18.9654 108.168 19.4941C108.439 20.0228 108.801 20.4204 109.252 20.6892C109.703 20.9579 110.201 21.0912 110.743 21.0912C111.107 21.0912 111.44 21.049 111.742 20.9624C112.044 20.8758 112.335 20.7425 112.62 20.5603C112.902 20.3782 113.164 20.1827 113.402 19.9739C113.639 19.7651 113.948 19.483 114.328 19.1254C114.483 18.9921 114.708 18.9232 114.999 18.9232C115.312 18.9232 115.565 19.0099 115.759 19.1809C115.952 19.3519 116.049 19.5941 116.049 19.9073C116.049 20.1827 115.941 20.5048 115.725 20.8735C115.51 21.2423 115.183 21.5955 114.748 21.9353C114.312 22.2752 113.766 22.5551 113.106 22.7794C112.447 23.0038 111.689 23.1148 110.834 23.1148C108.875 23.1148 107.353 22.5573 106.267 21.44C105.181 20.3227 104.636 18.8077 104.636 16.8952C104.636 15.9933 104.77 15.1581 105.039 14.3873C105.307 13.6166 105.698 12.9568 106.211 12.406C106.724 11.8551 107.358 11.433 108.111 11.1376C108.864 10.8444 109.697 10.6956 110.612 10.6956C111.802 10.6956 112.824 10.9466 113.677 11.4486C114.53 11.9506 115.168 12.6014 115.592 13.3967C116.016 14.1941 116.229 15.0049 116.229 15.8312C116.229 16.5975 116.01 17.0951 115.57 17.3217C115.128 17.5483 114.508 17.6615 113.713 17.6615ZM107.749 15.9289H113.277C113.202 14.8871 112.922 14.1075 112.433 13.5899C111.945 13.0723 111.303 12.8147 110.507 12.8147C109.748 12.8147 109.123 13.0768 108.637 13.601C108.148 14.1252 107.853 14.9027 107.749 15.9289Z" fill="#FF8300"/>
<path d="M121.301 18.71V21.2578C121.301 21.8753 121.156 22.3396 120.865 22.6484C120.574 22.9571 120.206 23.1126 119.759 23.1126C119.319 23.1126 118.96 22.9571 118.675 22.6439C118.393 22.3307 118.251 21.8687 118.251 21.26V12.768C118.251 11.3975 118.746 10.7133 119.737 10.7133C120.243 10.7133 120.608 10.8733 120.832 11.1931C121.056 11.513 121.179 11.9861 121.201 12.6125C121.565 11.9861 121.941 11.5152 122.323 11.1931C122.707 10.8733 123.218 10.7133 123.858 10.7133C124.497 10.7133 125.119 10.8733 125.723 11.1931C126.328 11.513 126.627 11.9373 126.627 12.4659C126.627 12.8391 126.499 13.1456 126.243 13.3878C125.986 13.6299 125.708 13.7498 125.41 13.7498C125.299 13.7498 125.028 13.681 124.599 13.5433C124.171 13.4055 123.793 13.3367 123.467 13.3367C123.02 13.3367 122.656 13.4544 122.371 13.6876C122.089 13.9231 121.869 14.2696 121.712 14.7317C121.556 15.1937 121.447 15.7423 121.387 16.3799C121.332 17.0174 121.301 17.7948 121.301 18.71Z" fill="#FF8300"/>
<path fill-rule="evenodd" clip-rule="evenodd" d="M74.5091 12.9346C74.0715 12.2371 73.4718 11.6352 72.7787 11.1931C72.2767 10.8733 71.597 10.5912 71.0106 10.4423V9.33834L68.4316 11.9173L71.0106 14.4962V13.3811C71.7591 13.7809 72.4233 14.5739 72.5788 15.4136C72.5877 15.4625 72.5966 15.5113 72.6032 15.5624C72.6188 15.6801 72.6254 15.8023 72.6254 15.9267C72.6254 16.1089 72.6254 21.9375 72.6254 21.9375C72.6254 22.6306 73.283 23.2392 74.0337 23.2392C74.9245 23.2392 75.3576 22.5684 75.3821 21.9375V15.5446C75.3798 14.7205 75.0955 13.8676 74.5091 12.9346Z" fill="#FF8300"/>
<path fill-rule="evenodd" clip-rule="evenodd" d="M68.6228 13.25L67.29 11.9173L68.8027 10.4046L68.5872 10.4512C68.5561 10.4579 68.525 10.4645 68.4962 10.4712C67.9031 10.6111 67.3411 10.8466 66.8235 11.1731C66.1172 11.6152 65.5085 12.2238 65.062 12.9302C64.7488 13.4255 64.2246 14.4251 64.2246 15.5446V21.9375C64.2379 22.5528 64.7622 23.217 65.5863 23.217C66.3837 23.217 67.0101 22.6528 67.0101 21.9353V15.5402C67.0101 14.8116 67.732 13.8387 68.5872 13.4144C68.6183 13.3989 68.6494 13.3855 68.6805 13.37L68.725 13.35L68.6228 13.25Z" fill="#FF8300"/>
<path fill-rule="evenodd" clip-rule="evenodd" d="M15.9579 0.419827C7.33707 0.419827 0.348877 7.40803 0.348877 16.0289C0.348877 24.6497 7.33707 31.6379 15.9579 31.6379C24.5788 31.6379 31.567 24.6497 31.567 16.0289C31.567 7.40803 24.5788 0.419827 15.9579 0.419827ZM12.5616 13.9342C12.5927 13.9808 12.6282 14.0275 12.6615 14.0719C12.7437 14.1808 12.8348 14.2829 12.9347 14.3829C13.0747 14.5228 17.5439 18.9921 17.5439 18.9921C18.0326 19.4808 17.9571 20.3715 17.4617 20.8669C16.8753 21.4533 16.1223 21.3533 15.6336 20.9024L10.7334 16.0022C10.0182 15.287 9.65167 14.3318 9.43842 13.4033C9.24295 12.5481 9.24073 11.6596 9.42954 10.8044C9.5717 10.1624 9.82271 9.54047 10.1803 8.96515C10.1826 8.96293 10.1848 8.95849 10.187 8.95627L9.22518 7.99445H13.1791V11.9484L12.2173 10.9865C12.215 10.991 12.215 10.9932 12.2128 10.9976C11.8463 11.9595 11.9618 13.0634 12.5616 13.9342ZM19.8185 25.0007C19.261 25.345 18.6612 25.5871 18.0415 25.7293C17.1752 25.927 16.2733 25.9292 15.407 25.7315C14.5052 25.5271 13.5167 25.0962 12.8303 24.4076L7.92794 19.5074C7.50589 19.0676 7.43037 18.2413 7.98791 17.6837C8.54546 17.1262 9.37178 17.0884 9.86047 17.5749L14.7651 22.4795C15.3982 23.1126 16.7665 23.2659 17.7505 22.9349C17.7883 22.9216 17.8238 22.9082 17.8594 22.8949V24.9407H19.9141C19.883 24.9585 19.8496 24.9807 19.8185 25.0007ZM18.7368 24.0633V20.1094L19.6986 21.0712C19.7008 21.0668 19.7008 21.0646 19.703 21.0601C20.0718 20.0983 19.954 18.9943 19.3543 18.1236C19.3232 18.0769 19.2876 18.0303 19.2543 17.9858C19.1721 17.877 19.0811 17.7748 18.9811 17.6749C18.8412 17.5349 14.3719 13.0657 14.3719 13.0657C13.8832 12.577 13.9588 11.6862 14.4541 11.1909C15.0405 10.6045 15.7935 10.7044 16.2822 11.1554L21.1824 16.0555C21.8977 16.7708 22.2642 17.7259 22.4774 18.6545C22.6729 19.5096 22.6751 20.3982 22.4863 21.2534C22.3442 21.8953 22.0931 22.5173 21.7377 23.0926C21.7355 23.0948 21.7333 23.0993 21.7311 23.1015L22.6929 24.0633H18.7368ZM23.9257 14.374C23.3682 14.9316 22.5418 14.9693 22.0532 14.4829L17.1508 9.57823C16.5177 8.94516 15.1494 8.79189 14.1653 9.12287C14.1276 9.13619 14.092 9.14952 14.0565 9.16285V7.11704H12.0018C12.0351 7.09704 12.0662 7.07483 12.0995 7.05484C12.6571 6.71054 13.2568 6.46842 13.8766 6.32625C14.7429 6.12856 15.6447 6.12634 16.511 6.32403C17.4129 6.52839 18.4014 6.95932 19.0877 7.64793L23.9879 12.5481C24.4077 12.9901 24.4833 13.8165 23.9257 14.374Z" fill="#FF8300"/>
</g>
<defs>
<clipPath id="clip0_1332_20878">
<rect width="126.938" height="32" fill="white"/>
</clipPath>
</defs>
</svg>
