<svg xmlns="http://www.w3.org/2000/svg" width="256px" xmlns:xlink="http://www.w3.org/1999/xlink" id="Layer_1" x="0px" y="0px" viewBox="0 0 228 68.9" style="enable-background:new 0 0 228 68.9;" xml:space="preserve"><style type="text/css">	.st0{clip-path:url(#SVGID_00000076580378668580880990000017782045880737197992_);}	.st1{fill:#00354E;}	.st2{fill:#7EB5D1;}	.st3{fill:#62ADCE;}	.st4{fill:#0084AB;}	.st5{fill:#39A3CC;}</style><g>	<g>		<defs>			<rect id="SVGID_1_" y="1" width="228" height="51"></rect>		</defs>		<clipPath id="SVGID_00000041285028687915384660000012467118452598662582_">			<use xlink:href="#SVGID_1_" style="overflow:visible;"></use>		</clipPath>		<g style="clip-path:url(#SVGID_00000041285028687915384660000012467118452598662582_);">			<g>				<path class="st1" d="M9.8,48.5h2.7v2.9H3.4v-2.9h2.7V33.6H3.3v3H0v-5.8h15.9v5.8h-3.3v-3H9.8V48.5z"></path>				<path class="st1" d="M23.4,48.5H26v2.9h-8.5v-2.9h2.2V33.6h-2.2v-2.9h8.6c2.6,0,4.6,0.4,5.8,1.3c1.2,0.9,1.8,2.2,1.8,4     c0,1.1-0.3,2.1-0.9,2.8c-0.6,0.7-1.5,1.3-2.7,1.7c1.1,0.1,1.8,0.5,2.3,1.1s0.7,1.4,0.7,2.5v4.3h2v2.9h-5.8v-5.2     c0-1.8-0.3-2.9-0.8-3.5c-0.6-0.5-1.6-0.8-3-0.8h-1.9v6.7H23.4z M23.4,33.6V39h2.7c1.3,0,2.2-0.2,2.8-0.6     c0.6-0.4,0.9-1.1,0.9-2.1c0-0.9-0.3-1.6-0.9-2.1c-0.6-0.4-1.5-0.6-2.8-0.6C26.1,33.6,23.4,33.6,23.4,33.6z"></path>				<path class="st1" d="M41.8,48.5H44v2.9h-7.5v-2.9h1.7l5.3-14.9h-2.3v-2.9h10.7v2.9h-2.4l5.2,14.9h1.9v2.9h-7.9v-2.9h2.2     l-1.3-3.7H43L41.8,48.5z M43.9,41.9h4.7l-2.4-7L43.9,41.9z"></path>				<path class="st1" d="M61.6,43.8c0,1.6,0.3,2.8,0.9,3.4c0.6,0.7,1.5,1,2.9,1c1.3,0,2.3-0.3,2.8-1c0.6-0.7,0.9-1.8,0.9-3.4V33.6     h-2.2v-2.9H75v2.9h-2.2v9.8c0,1.5-0.1,2.6-0.3,3.4c-0.2,0.8-0.5,1.5-0.9,2.1c-0.6,1-1.4,1.7-2.5,2.1c-1.1,0.5-2.3,0.7-3.9,0.7     c-1.4,0-2.6-0.2-3.6-0.6c-1-0.4-1.9-1-2.5-1.8c-0.5-0.6-0.9-1.4-1.1-2.2c-0.2-0.9-0.3-2.1-0.3-3.7v-9.8h-2.2v-2.9h8.2v2.9h-2.2     L61.6,43.8L61.6,43.8z"></path>				<path class="st1" d="M82.6,48.5h2.5v2.9h-8.4v-2.9H79V33.6h-2.2v-2.9h8.1L89,42.5l4.2-11.8h7.8v2.9h-2.2v14.9h2.2v2.9h-8.4v-2.9     H95v-8.8v-5.1l-5.2,14h-2l-5.2-14L82.6,48.5z"></path>				<path class="st1" d="M114.1,48.5v-3.4h3.4v6.2h-15.3v-2.6L113,33.6h-6.9v2.8h-3.4v-5.6h14.9v2.5l-10.8,15.2L114.1,48.5z"></path>				<path class="st1" d="M124.5,48.5h2.2v2.9h-7.5v-2.9h1.7l5.3-14.9h-2.3v-2.9h10.7v2.9h-2.4l5.2,14.9h1.9v2.9h-7.9v-2.9h2.2     l-1.3-3.7h-6.6L124.5,48.5z M126.6,41.9h4.7l-2.4-7L126.6,41.9z"></path>				<path class="st1" d="M143.9,43.8c0,1.6,0.3,2.8,0.9,3.4c0.6,0.7,1.5,1,2.9,1c1.3,0,2.3-0.3,2.8-1c0.6-0.7,0.9-1.8,0.9-3.4V33.6     h-2.2v-2.9h8.2v2.9h-2.2v9.8c0,1.5-0.1,2.6-0.3,3.4c-0.2,0.8-0.5,1.5-0.9,2.1c-0.6,1-1.4,1.7-2.5,2.1c-1.1,0.5-2.3,0.7-3.9,0.7     c-1.4,0-2.6-0.2-3.6-0.6c-1-0.4-1.9-1-2.5-1.8c-0.5-0.6-0.9-1.4-1.1-2.2c-0.2-0.9-0.3-2.1-0.3-3.7v-9.8h-2.2v-2.9h8.2v2.9h-2.2     L143.9,43.8L143.9,43.8z"></path>				<path class="st1" d="M164.5,48.5h2.2v2.9h-8v-2.9h2.2V33.6h-2.2v-2.9h6.4l7.5,13.5V33.6h-2.2v-2.9h8v2.9h-2.2v18.1H173     l-8.4-15.6v12.4H164.5z"></path>			</g>			<path class="st2" d="M189,22.8c-0.1-0.5-0.2-1.1-0.2-1.6c0-0.6,0.1-1.1,0.2-1.7c-0.3-0.1-0.6-0.3-0.9-0.3    c0.1-0.3,0.1-0.5,0.1-0.8c0-2.5-2-4.4-4.5-4.4c-0.8,0-1.6,0.2-2.3,0.6c-1-1.5-2.7-2.5-4.7-2.5c-3.1,0-5.6,2.5-5.6,5.5    c0,0.5,0.1,1,0.2,1.4c-1.6,0.7-2.7,2.2-2.7,4c0,2.4,1.9,4.3,4.4,4.4h10.5C184.5,25.1,186.5,23.4,189,22.8L189,22.8z"></path>			<path class="st3" d="M222.6,22.4c0.3-0.9,0.4-1.9,0.4-2.9c0-6.1-5-11.1-11.2-11.1c-3.9,0-7.4,2-9.4,5c-1.3-0.8-2.9-1.2-4.6-1.2    c-4.4,0-8.1,3.1-8.9,7.2c1.4,0.7,2.3,2.1,2.3,3.7c0,2.2-1.8,4.1-4.1,4.1l0,0h-3.7c-0.5,1.1-0.8,2.3-0.8,3.5    c0,4.5,3.6,8.1,8.2,8.3l0,0h28.4l0,0c4.8,0,8.7-4,8.7-8.7C228,26.8,225.8,23.8,222.6,22.4L222.6,22.4z"></path>			<path class="st4" d="M187.2,27.3c2.3-0.1,4.1-1.9,4.1-4.1c0-1.6-0.9-3-2.3-3.7c-0.1,0.5-0.2,1.1-0.2,1.7s0.1,1.1,0.2,1.6    c-2.4,0.6-4.4,2.3-5.5,4.5H187.2L187.2,27.3L187.2,27.3z"></path>			<path class="st5" d="M185.9,7.6c0-1.1,0.7-2,1.6-2.4c-0.1-0.3-0.1-0.6-0.1-0.9c0-1.8,1.5-3.4,3.4-3.4c1.2,0,2.2,0.6,2.8,1.5    C194,2.2,194.5,2,195,2c1.5,0,2.7,1.2,2.7,2.7c0,0.2,0,0.3,0,0.5c1.1,0.3,1.9,1.3,1.9,2.4c0,1.4-1.1,2.5-2.5,2.5l0,0h-8.6l0,0    C187.1,10.3,185.9,9.1,185.9,7.6z"></path>			<path class="st1" d="M181.2,47c1.5,0,2.6,1.1,2.6,2.5s-1.1,2.5-2.6,2.5s-2.6-1.1-2.6-2.5C178.6,48.1,179.7,47,181.2,47L181.2,47z     M181.2,47.5c-1.1,0-1.9,0.9-1.9,2s0.8,2,2,2c1.1,0,1.9-0.9,1.9-2C183.1,48.4,182.3,47.5,181.2,47.5L181.2,47.5z M180.8,50.8    h-0.6v-2.5c0.2,0,0.6-0.1,1-0.1c0.5,0,0.7,0.1,0.9,0.2c0.1,0.1,0.2,0.3,0.2,0.5c0,0.3-0.2,0.5-0.5,0.6l0,0    c0.2,0.1,0.4,0.3,0.5,0.6c0.1,0.4,0.1,0.5,0.2,0.6h-0.6c-0.1-0.1-0.1-0.3-0.2-0.6c0-0.3-0.2-0.4-0.5-0.4h-0.3L180.8,50.8    L180.8,50.8z M180.8,49.4h0.3c0.3,0,0.6-0.1,0.6-0.4c0-0.2-0.2-0.4-0.5-0.4c-0.2,0-0.3,0-0.3,0v0.8H180.8z"></path>		</g>	</g></g><g>	<path class="st1" d="M27.9,60.2h2c1.5,0,2.2,0.8,2.2,2c0,0.9-0.5,1.5-1.3,1.8v0c0.9,0.1,1.5,0.9,1.5,2c0,1.1-0.8,2.2-2.5,2.2h-1.9  V60.2z M28.9,63.7h0.6c1.1,0,1.6-0.5,1.6-1.4c0-0.7-0.4-1.3-1.5-1.3h-0.8V63.7z M28.9,67.4h0.9c1.1,0,1.5-0.7,1.5-1.4  c0-0.8-0.5-1.4-1.4-1.4h-1V67.4z"></path>	<path class="st1" d="M35.6,60.2h3.7v0.9h-2.7v2.5h2.6v0.9h-2.6v2.8h2.9v0.9h-3.9V60.2z"></path>	<path class="st1" d="M46,61.4c-0.4-0.2-0.9-0.4-1.4-0.4c-0.8,0-1.2,0.5-1.2,1.2c0,0.5,0.2,0.8,1.3,1.5c1.2,0.7,1.6,1.4,1.6,2.3  c0,1.3-0.8,2.3-2.3,2.3c-0.6,0-1.2-0.1-1.7-0.3v-1c0.5,0.3,1,0.5,1.5,0.5c0.9,0,1.4-0.6,1.4-1.3c0-0.6-0.2-1-1.2-1.6  c-1.4-0.9-1.8-1.4-1.8-2.4c0-1.3,1-2,2.2-2c0.5,0,1.1,0.1,1.4,0.3V61.4z"></path>	<path class="st1" d="M50.8,61.1h-1.8v-0.9h4.7v0.9h-1.8v7.1h-1V61.1z"></path>	<path class="st1" d="M60.6,67.2l3.2-6.1h-3.1v-0.9H65v0.9l-3.3,6.2h3.4v0.9h-4.5V67.2z"></path>	<path class="st1" d="M71.1,60.2l2.6,8h-1l-0.6-2.1h-3l-0.6,2.1h-1l2.7-8H71.1z M71.8,65.2l-1.2-4h0l-1.3,4H71.8z"></path>	<path class="st1" d="M81.1,65.3c0,0.8,0,1.2-0.3,1.8c-0.3,0.7-1,1.2-2.2,1.2c-1.2,0-1.8-0.6-2.2-1.2c-0.3-0.6-0.3-1-0.3-1.8v-5h1  v5.2c0,1.2,0.5,2,1.5,2c0.9,0,1.5-0.8,1.5-2v-5.2h1V65.3z"></path>	<path class="st1" d="M84.7,60.2h1.2l3,6.6h0v-6.6h1v8h-1.2l-3-6.5h0v6.5h-1V60.2z"></path>	<path class="st1" d="M98.1,60.2h1v8h-1V60.2z"></path>	<path class="st1" d="M102.6,60.2h1.2l3,6.6h0v-6.6h1v8h-1.2l-3-6.5h0v6.5h-1V60.2z"></path>	<path class="st1" d="M116.5,61.1h-1.8v-0.9h4.7v0.9h-1.8v7.1h-1V61.1z"></path>	<path class="st1" d="M124.4,60.1c1.8,0,2.9,1.5,2.9,4c0,2.7-1.1,4.1-3,4.1c-1.8,0-2.9-1.5-2.9-4C121.4,61.5,122.5,60.1,124.4,60.1z   M124.3,67.4c1,0,1.9-0.9,1.9-3.3c0-1.6-0.5-3.2-1.8-3.2c-1,0-1.9,0.9-1.9,3.3C122.5,65.9,123,67.4,124.3,67.4z"></path>	<path class="st1" d="M129.8,60.2h1l1.3,6.5h0l1.4-6.5h1.3l1.4,6.5h0l1.4-6.5h1l-1.7,8h-1.2l-1.5-6.8h0l-1.5,6.8h-1.2L129.8,60.2z"></path>	<path class="st1" d="M141.5,60.2h1.2l3,6.6h0v-6.6h1v8h-1.2l-3-6.5h0v6.5h-1V60.2z"></path>	<path class="st1" d="M148.4,66.9h1.1v1.3h-1.1V66.9z"></path></g></svg>