<svg xmlns="http://www.w3.org/2000/svg" width="98" height="24" viewBox="0 0 98 24" fill="none">
<path d="M5.83138 13.824H5.93319C6.03501 13.8148 6.13682 13.7963 6.22938 13.7685C6.86802 13.5741 7.26602 12.9355 7.15495 12.2876C6.50705 8.65007 8.68214 5.08661 12.2178 3.98518C12.7547 3.81858 13.31 3.71677 13.8653 3.67049C14.0412 3.66123 14.2171 3.65198 14.3929 3.65198C17.2715 3.65198 19.9001 5.34578 21.0848 7.9744C21.2977 8.43719 21.7697 8.74263 22.2881 8.74263H22.3806C22.4824 8.73337 22.5842 8.71486 22.6768 8.68709C23.047 8.57602 23.3432 8.30761 23.5006 7.95589C23.6579 7.61343 23.6579 7.21543 23.5006 6.86371C21.8808 3.291 18.2988 0.986328 14.3744 0.986328C14.1338 0.986328 13.8931 0.995584 13.6617 1.0141C12.9028 1.06963 12.153 1.20847 11.4218 1.4306C6.61812 2.92077 3.64703 7.77078 4.51707 12.7226C4.63739 13.3612 5.18348 13.824 5.83138 13.824Z" fill="currentColor"/>
<path d="M16.633 18.3137C14.3746 19.0079 11.9218 18.6099 10.0059 17.24C11.8663 16.9439 13.9025 16.4718 15.9018 15.8517C17.9103 15.2315 19.7892 14.5096 21.4922 13.7043C20.6777 15.9072 18.8821 17.6195 16.633 18.3137ZM28.1749 6.74404C27.8232 5.59633 26.7402 5.04099 25.9072 4.78183C25.1668 4.55044 24.2319 4.42086 23.1398 4.40234C23.075 4.40234 23.0287 4.43011 23.0009 4.48565C22.9732 4.54118 22.9824 4.60597 23.0194 4.64299C23.6211 5.35568 24.1301 6.14242 24.5281 6.98469C24.5651 7.05874 24.6299 7.11427 24.7132 7.13278C24.9446 7.17906 25.1483 7.2346 25.3241 7.29939C25.4352 7.33641 25.5185 7.42897 25.5555 7.54003C25.5925 7.6511 25.574 7.77143 25.5092 7.86398C25.2686 8.20645 24.6484 8.91914 23.112 9.89099C21.0665 11.1868 18.2342 12.4271 15.1336 13.3804C12.0329 14.3337 8.99701 14.9076 6.58127 14.9909C4.76714 15.0464 3.85083 14.815 3.46209 14.6669C3.35102 14.6299 3.27697 14.5374 3.23995 14.4263C3.20293 14.3152 3.22144 14.1949 3.28623 14.1023C3.37879 13.9635 3.50837 13.8154 3.65646 13.6581C3.71199 13.6025 3.73976 13.51 3.7305 13.4359C3.58241 12.5104 3.55465 11.5663 3.65646 10.6407C3.66571 10.5852 3.63795 10.5296 3.58241 10.4926C3.52688 10.4648 3.47134 10.4648 3.41581 10.5019C2.55503 11.122 1.8701 11.7421 1.39806 12.3345C0.851974 13.0194 0.268863 14.0838 0.62058 15.2315C0.972298 16.3793 2.05522 16.9346 2.88823 17.1938C3.78604 17.4714 4.943 17.601 6.34062 17.5732C6.51648 17.5732 6.70159 17.564 6.88671 17.5547C8.02516 18.8505 9.5431 19.8779 11.2832 20.5258C12.4772 20.9793 13.7082 21.4236 14.8929 21.8494L16.7533 22.5158L18.0213 22.9786L18.0954 23.0063L18.9284 21.8401C19.3079 21.3033 19.6966 20.7665 20.0854 20.2389C20.8258 19.2208 21.5848 18.1656 22.316 17.1105C23.3804 15.6018 24.0468 13.9172 24.269 12.2142C24.4448 12.1031 24.6207 12.0013 24.778 11.8902C25.9442 11.1313 26.8328 10.363 27.4159 9.63183C27.9527 8.95616 28.5358 7.89175 28.1749 6.74404Z" fill="currentColor"/>
<path d="M41.2338 8.76172V14.2781C41.2338 15.1759 41.2245 16.009 40.5581 16.7216C40.0676 17.2585 39.2808 17.4621 38.5589 17.4621C37.8369 17.4621 37.0502 17.2492 36.5597 16.7216C35.8932 15.9997 35.884 15.1759 35.884 14.2781V8.76172H33.459V14.9168C33.459 15.648 33.5608 16.3144 33.7922 16.9068C34.0143 17.4991 34.3568 18.0082 34.7918 18.4432C35.2176 18.869 35.7451 19.2114 36.3653 19.4428C36.9854 19.6835 37.7074 19.8038 38.5034 19.8038H38.6144C39.4104 19.8038 40.1324 19.6835 40.7525 19.4428C41.3726 19.2022 41.9002 18.869 42.326 18.4432C42.7517 18.0174 43.0942 17.4991 43.3256 16.9068C43.557 16.3144 43.6588 15.6387 43.6588 14.9168V8.76172H41.2338Z" fill="currentColor"/>
<path d="M51.1102 17.5723C49.3239 17.5723 47.8707 15.9804 47.8707 14.0274C47.8707 12.0652 49.3239 10.4825 51.1102 10.4825C52.8966 10.4825 54.3497 12.0744 54.3497 14.0274C54.3497 15.9804 52.8966 17.5723 51.1102 17.5723ZM56.3212 11.7968C56.0435 11.0933 55.664 10.4732 55.192 9.94563C54.7292 9.41806 54.1646 9.00155 53.526 8.70536C52.8966 8.40918 52.2024 8.26109 51.4897 8.26109C50.8511 8.26109 50.2309 8.35365 49.6941 8.55727C49.1665 8.7609 48.7593 8.98304 48.3335 9.27922C48.1206 9.43657 47.8429 9.67722 47.8429 9.67722V3.39258H45.4087V11.2599C45.4087 12.9445 45.1958 14.6846 45.8252 16.2951C46.0936 16.9892 46.4916 17.6094 46.9914 18.1277C47.4912 18.646 48.0836 19.0625 48.7778 19.3587C49.4627 19.6549 50.2402 19.803 51.0824 19.803C51.9062 19.803 52.6744 19.6549 53.3593 19.3494C54.0443 19.0533 54.6459 18.6368 55.1457 18.1184C55.6455 17.6001 56.0343 16.98 56.3119 16.2858C56.5896 15.5916 56.7284 14.8234 56.7284 14.0274C56.7377 13.2407 56.5989 12.491 56.3212 11.7968Z" fill="currentColor"/>
<path d="M60.4858 12.5933C60.7079 11.8714 61.1059 11.3808 61.652 10.955C62.2074 10.52 62.8553 10.3071 63.5865 10.3071C64.3639 10.3071 65.0396 10.5293 65.595 10.955C66.1596 11.3901 66.539 11.8806 66.7334 12.6118L66.826 12.945H60.3747L60.4858 12.5933ZM68.8252 16.3882H66.1873C65.9189 16.8324 65.5487 17.1656 65.1137 17.3785C64.6416 17.6099 64.1233 17.7302 63.5957 17.7302C62.8368 17.7302 62.1703 17.5081 61.6057 17.0638C61.0504 16.6288 60.6524 16.0087 60.4488 15.2404L60.3562 14.9072H69.1769C69.2417 13.9076 69.1584 13.0006 68.9178 12.2046C68.6586 11.353 68.2699 10.6126 67.7608 10.0295C67.2517 9.44636 66.6316 8.99283 65.9189 8.6874C65.197 8.38196 64.4287 8.22461 63.6142 8.22461C62.846 8.22461 62.1148 8.38196 61.4391 8.6874C60.7542 8.99283 60.1526 9.40934 59.6343 9.92766C59.1252 10.446 58.7087 11.0661 58.4125 11.7696C58.1163 12.473 57.959 13.232 57.959 14.0279C57.959 14.8239 58.1071 15.5829 58.4125 16.2771C58.7087 16.9713 59.1252 17.5914 59.6343 18.1097C60.1433 18.628 60.7542 19.0446 61.4391 19.3407C62.1148 19.6369 62.8553 19.785 63.6235 19.785C65.0118 19.785 66.1688 19.4333 67.0851 18.7484C67.8811 18.156 68.4735 17.36 68.8252 16.3882Z" fill="currentColor"/>
<path d="M74.1478 11.0211C74.7124 10.586 75.4436 10.4194 76.3229 10.512V8.27211C75.4992 8.18881 74.7494 8.24435 74.0923 8.42946C73.3796 8.62383 72.7687 8.94778 72.2782 9.3828C71.7876 9.81782 71.4081 10.3547 71.149 10.984C70.8898 11.6227 70.751 12.3446 70.751 13.1221V19.6381H73.176V13.1221C73.1852 12.2151 73.5092 11.5116 74.1478 11.0211Z" fill="currentColor"/>
<path d="M82.8482 17.6002C82.4039 17.6002 81.9781 17.5077 81.5894 17.3318C81.2007 17.156 80.8489 16.9061 80.562 16.5914C80.2751 16.2767 80.0344 15.9064 79.8678 15.4807C79.7012 15.0549 79.6087 14.5921 79.6087 14.1016C79.6087 13.5925 79.692 13.1205 79.8586 12.6854C80.0252 12.2504 80.2566 11.8709 80.5528 11.5562C80.8489 11.2323 81.1914 10.9824 81.5894 10.7973C82.3761 10.4363 83.3202 10.4363 84.107 10.8065C84.4957 10.9916 84.8382 11.2508 85.1343 11.5748C85.4213 11.8987 85.6619 12.2782 85.8285 12.704C85.9951 13.139 86.0877 13.6018 86.0877 14.1016C86.0877 14.5829 86.0044 15.0364 85.8285 15.4622C85.6619 15.8879 85.4305 16.2582 85.1343 16.5728C84.8382 16.8875 84.4957 17.1374 84.107 17.3226C83.709 17.4984 83.2832 17.6002 82.8482 17.6002ZM86.1247 18.424V19.6458H88.5497C88.5497 19.6458 88.559 15.4066 88.5497 14.0368C88.5497 13.3241 88.4016 12.4911 88.1239 11.7876C87.8463 11.0842 87.4575 10.4641 86.9577 9.95501C86.4579 9.43669 85.8563 9.02018 85.1714 8.71474C84.4864 8.4093 83.7182 8.25195 82.8945 8.25195C82.0522 8.25195 81.284 8.4093 80.5898 8.71474C79.8956 9.02018 79.294 9.43669 78.8034 9.95501C78.3036 10.4733 77.9149 11.0935 77.6372 11.7876C77.3595 12.4911 77.2207 13.25 77.2207 14.0553C77.2207 14.8513 77.3595 15.601 77.6372 16.2952C78.2851 17.9057 79.6827 19.3125 81.4413 19.6458C82.3576 19.8124 83.3202 19.8216 84.2273 19.581C84.9307 19.3773 85.7082 19.0441 86.1247 18.424Z" fill="currentColor"/>
<path d="M93.0197 19.6364H90.5762V3.39258H93.0197V19.6364Z" fill="currentColor"/>
<path d="M97.4904 19.6364H95.0469V3.39258H97.4904V19.6364Z" fill="currentColor"/>
</svg>
