<svg width="1286" height="552" viewBox="0 0 1286 552" fill="none" xmlns="http://www.w3.org/2000/svg">
<g clip-path="url(#clip0_2011_5)">
<path d="M281.787 195.98C280.571 180.782 274.871 168.926 264.688 160.415C254.657 151.904 239.382 147.648 218.864 147.648C205.793 147.648 195.077 149.244 186.718 152.436C178.511 155.475 172.431 159.655 168.479 164.975C164.528 170.294 162.476 176.374 162.324 183.213C162.02 188.837 163.008 193.929 165.288 198.488C167.719 202.896 171.519 206.924 176.687 210.571C181.854 214.067 188.466 217.259 196.521 220.147C204.577 223.034 214.152 225.618 225.247 227.898L263.548 236.105C289.386 241.577 311.501 248.797 329.891 257.764C348.282 266.731 363.329 277.294 375.032 289.453C386.735 301.461 395.322 314.988 400.794 330.034C406.418 345.081 409.305 361.496 409.457 379.279C409.305 409.98 401.63 435.971 386.431 457.249C371.232 478.527 349.498 494.714 321.228 505.809C293.11 516.904 259.293 522.452 219.776 522.452C179.195 522.452 143.781 516.449 113.536 504.441C83.4418 492.434 60.0355 473.968 43.3168 449.042C26.75 423.963 18.3906 391.894 18.2386 352.833H138.614C139.374 367.12 142.945 379.127 149.329 388.854C155.712 398.581 164.68 405.953 176.231 410.968C187.934 415.984 201.841 418.492 217.952 418.492C231.479 418.492 242.802 416.82 251.921 413.476C261.04 410.132 267.956 405.497 272.668 399.569C277.379 393.642 279.811 386.878 279.963 379.279C279.811 372.135 277.455 365.904 272.896 360.584C268.488 355.113 261.192 350.249 251.009 345.993C240.826 341.586 227.071 337.482 209.744 333.682L163.236 323.651C121.895 314.684 89.2933 299.713 65.4311 278.738C41.7209 257.612 29.9418 228.81 30.0938 192.333C29.9418 162.695 37.8452 136.781 53.804 114.591C69.9148 92.2482 92.1811 74.8455 120.603 62.3824C149.177 49.9194 181.93 43.6878 218.864 43.6878C256.557 43.6878 289.158 49.9954 316.668 62.6104C344.178 75.2255 365.381 93.0082 380.276 115.958C395.322 138.757 402.922 165.431 403.074 195.98H281.787ZM457.676 516.98V50.0714H660.125C695.69 50.0714 725.556 54.859 749.722 64.4343C774.04 74.0096 792.355 87.5366 804.666 105.015C817.129 122.494 823.36 143.088 823.36 166.799C823.36 183.973 819.561 199.628 811.961 213.763C804.514 227.898 794.027 239.753 780.5 249.328C766.973 258.752 751.166 265.287 733.079 268.935V273.495C753.142 274.255 771.38 279.346 787.795 288.77C804.21 298.041 817.281 310.884 827.008 327.299C836.735 343.561 841.599 362.712 841.599 384.75C841.599 410.284 834.912 433.007 821.537 452.917C808.314 472.828 789.467 488.483 764.997 499.882C740.527 511.281 711.345 516.98 677.451 516.98H457.676ZM584.434 415.756H643.71C664.988 415.756 680.947 411.804 691.586 403.901C702.226 395.846 707.545 383.99 707.545 368.336C707.545 357.392 705.037 348.121 700.022 340.522C695.006 332.922 687.863 327.147 678.591 323.195C669.472 319.243 658.453 317.267 645.534 317.267H584.434V415.756ZM584.434 238.841H636.414C647.51 238.841 657.313 237.093 665.824 233.598C674.336 230.102 680.947 225.086 685.659 218.551C690.522 211.863 692.954 203.732 692.954 194.157C692.954 179.718 687.787 168.698 677.451 161.099C667.116 153.348 654.045 149.472 638.238 149.472H584.434V238.841ZM886.512 516.98V50.0714H1088.96C1124.53 50.0714 1154.39 54.859 1178.56 64.4343C1202.88 74.0096 1221.19 87.5366 1233.5 105.015C1245.96 122.494 1252.2 143.088 1252.2 166.799C1252.2 183.973 1248.4 199.628 1240.8 213.763C1233.35 227.898 1222.86 239.753 1209.34 249.328C1195.81 258.752 1180 265.287 1161.92 268.935V273.495C1181.98 274.255 1200.22 279.346 1216.63 288.77C1233.05 298.041 1246.12 310.884 1255.84 327.299C1265.57 343.561 1270.44 362.712 1270.44 384.75C1270.44 410.284 1263.75 433.007 1250.37 452.917C1237.15 472.828 1218.3 488.483 1193.83 499.882C1169.36 511.281 1140.18 516.98 1106.29 516.98H886.512ZM1013.27 415.756H1072.55C1093.82 415.756 1109.78 411.804 1120.42 403.901C1131.06 395.846 1136.38 383.99 1136.38 368.336C1136.38 357.392 1133.87 348.121 1128.86 340.522C1123.84 332.922 1116.7 327.147 1107.43 323.195C1098.31 319.243 1087.29 317.267 1074.37 317.267H1013.27V415.756ZM1013.27 238.841H1065.25C1076.35 238.841 1086.15 237.093 1094.66 233.598C1103.17 230.102 1109.78 225.086 1114.49 218.551C1119.36 211.863 1121.79 203.732 1121.79 194.157C1121.79 179.718 1116.62 168.698 1106.29 161.099C1095.95 153.348 1082.88 149.472 1067.07 149.472H1013.27V238.841Z" fill="#4DABF7"/>
<mask id="mask0_2011_5" style="mask-type:alpha" maskUnits="userSpaceOnUse" x="18" y="44" width="1253" height="480">
<path d="M281.787 196.98C280.571 181.782 274.871 169.926 264.688 161.415C254.657 152.904 239.382 148.648 218.864 148.648C205.793 148.648 195.077 150.244 186.718 153.436C178.511 156.475 172.431 160.655 168.479 165.975C164.528 171.294 162.476 177.374 162.324 184.213C162.02 189.837 163.008 194.929 165.288 199.488C167.719 203.896 171.519 207.924 176.687 211.571C181.854 215.067 188.466 218.259 196.521 221.147C204.577 224.034 214.152 226.618 225.247 228.898L263.548 237.105C289.386 242.577 311.501 249.797 329.891 258.764C348.282 267.731 363.329 278.294 375.032 290.453C386.735 302.461 395.322 315.988 400.794 331.034C406.418 346.081 409.305 362.496 409.457 380.279C409.305 410.98 401.63 436.971 386.431 458.249C371.232 479.527 349.498 495.714 321.228 506.809C293.11 517.904 259.293 523.452 219.776 523.452C179.195 523.452 143.781 517.449 113.536 505.441C83.4418 493.434 60.0355 474.968 43.3168 450.042C26.75 424.963 18.3906 392.894 18.2386 353.833H138.614C139.374 368.12 142.945 380.127 149.329 389.854C155.712 399.581 164.68 406.953 176.231 411.968C187.934 416.984 201.841 419.492 217.952 419.492C231.479 419.492 242.802 417.82 251.921 414.476C261.04 411.132 267.956 406.497 272.668 400.569C277.379 394.642 279.811 387.878 279.963 380.279C279.811 373.135 277.455 366.904 272.896 361.584C268.488 356.113 261.192 351.249 251.009 346.993C240.826 342.586 227.071 338.482 209.744 334.682L163.236 324.651C121.895 315.684 89.2933 300.713 65.4311 279.738C41.7209 258.612 29.9418 229.81 30.0938 193.333C29.9418 163.695 37.8452 137.781 53.804 115.591C69.9148 93.2482 92.1811 75.8455 120.603 63.3824C149.177 50.9194 181.93 44.6878 218.864 44.6878C256.557 44.6878 289.158 50.9954 316.668 63.6104C344.178 76.2255 365.381 94.0082 380.276 116.958C395.322 139.757 402.922 166.431 403.074 196.98H281.787ZM457.676 517.98V51.0714H660.125C695.69 51.0714 725.556 55.859 749.722 65.4343C774.04 75.0096 792.355 88.5366 804.666 106.015C817.129 123.494 823.36 144.088 823.36 167.799C823.36 184.973 819.561 200.628 811.961 214.763C804.514 228.898 794.027 240.753 780.5 250.328C766.973 259.752 751.166 266.287 733.079 269.935V274.495C753.142 275.255 771.38 280.346 787.795 289.77C804.21 299.041 817.281 311.884 827.008 328.299C836.735 344.561 841.599 363.712 841.599 385.75C841.599 411.284 834.912 434.007 821.537 453.917C808.314 473.828 789.467 489.483 764.997 500.882C740.527 512.281 711.345 517.98 677.451 517.98H457.676ZM584.434 416.756H643.71C664.988 416.756 680.947 412.804 691.586 404.901C702.226 396.846 707.545 384.99 707.545 369.336C707.545 358.392 705.037 349.121 700.022 341.522C695.006 333.922 687.863 328.147 678.591 324.195C669.472 320.243 658.453 318.267 645.534 318.267H584.434V416.756ZM584.434 239.841H636.414C647.51 239.841 657.313 238.093 665.824 234.598C674.336 231.102 680.947 226.086 685.659 219.551C690.522 212.863 692.954 204.732 692.954 195.157C692.954 180.718 687.787 169.698 677.451 162.099C667.116 154.348 654.045 150.472 638.238 150.472H584.434V239.841ZM886.512 517.98V51.0714H1088.96C1124.53 51.0714 1154.39 55.859 1178.56 65.4343C1202.88 75.0096 1221.19 88.5366 1233.5 106.015C1245.96 123.494 1252.2 144.088 1252.2 167.799C1252.2 184.973 1248.4 200.628 1240.8 214.763C1233.35 228.898 1222.86 240.753 1209.34 250.328C1195.81 259.752 1180 266.287 1161.92 269.935V274.495C1181.98 275.255 1200.22 280.346 1216.63 289.77C1233.05 299.041 1246.12 311.884 1255.84 328.299C1265.57 344.561 1270.44 363.712 1270.44 385.75C1270.44 411.284 1263.75 434.007 1250.37 453.917C1237.15 473.828 1218.3 489.483 1193.83 500.882C1169.36 512.281 1140.18 517.98 1106.29 517.98H886.512ZM1013.27 416.756H1072.55C1093.82 416.756 1109.78 412.804 1120.42 404.901C1131.06 396.846 1136.38 384.99 1136.38 369.336C1136.38 358.392 1133.87 349.121 1128.86 341.522C1123.84 333.922 1116.7 328.147 1107.43 324.195C1098.31 320.243 1087.29 318.267 1074.37 318.267H1013.27V416.756ZM1013.27 239.841H1065.25C1076.35 239.841 1086.15 238.093 1094.66 234.598C1103.17 231.102 1109.78 226.086 1114.49 219.551C1119.36 212.863 1121.79 204.732 1121.79 195.157C1121.79 180.718 1116.62 169.698 1106.29 162.099C1095.95 154.348 1082.88 150.472 1067.07 150.472H1013.27V239.841Z" fill="#2D2D2D"/>
</mask>
<g mask="url(#mask0_2011_5)">
<path d="M1186.5 -60.9502L26.8403 573.23H-161.042V-60.9502H1186.5Z" fill="#007AFF"/>
<path d="M1358.25 -104.019V515.181H527L1358.25 -119V-104.019Z" fill="#4744BE"/>
</g>
</g>
<defs>
<clipPath id="clip0_2011_5">
<rect width="1286" height="552" fill="white"/>
</clipPath>
</defs>
</svg>
